<?xml version="1.0" encoding="UTF-8" standalone="no"?><svg xmlns="http://www.w3.org/2000/svg" xmlns:xlink="http://www.w3.org/1999/xlink" contentScriptType="application/ecmascript" contentStyleType="text/css" height="439.5px" preserveAspectRatio="none" style="width:643px;height:439px;" version="1.1" viewBox="0 0 643 439" width="643.5px" zoomAndPan="magnify"><defs><filter height="300%" id="f4328rk1twnn" width="300%" x="-1" y="-1"><feGaussianBlur result="blurOut" stdDeviation="3.0"/><feColorMatrix in="blurOut" result="blurOut2" type="matrix" values="0 0 0 0 0 0 0 0 0 0 0 0 0 0 0 0 0 0 .4 0"/><feOffset dx="6.0" dy="6.0" in="blurOut2" result="blurOut3"/><feBlend in="SourceGraphic" in2="blurOut3" mode="normal"/></filter></defs><g><rect fill="#FFFFFF" filter="url(#f4328rk1twnn)" height="218.4961" style="stroke: #A80036; stroke-width: 1.5;" width="15" x="180" y="176.1445"/><rect fill="#FFFFFF" filter="url(#f4328rk1twnn)" height="131.0977" style="stroke: #A80036; stroke-width: 1.5;" width="15" x="349.5" y="219.8438"/><rect fill="#FFFFFF" filter="url(#f4328rk1twnn)" height="43.6992" style="stroke: #A80036; stroke-width: 1.5;" width="15" x="538.5" y="263.543"/><line style="stroke: #A80036; stroke-width: 1.5; stroke-dasharray: 5.0,5.0;" x1="58.5" x2="58.5" y1="129.4453" y2="421.6406"/><line style="stroke: #A80036; stroke-width: 1.5; stroke-dasharray: 5.0,5.0;" x1="187.5" x2="187.5" y1="129.4453" y2="421.6406"/><line style="stroke: #A80036; stroke-width: 1.5; stroke-dasharray: 5.0,5.0;" x1="357" x2="357" y1="129.4453" y2="421.6406"/><line style="stroke: #A80036; stroke-width: 1.5; stroke-dasharray: 5.0,5.0;" x1="546" x2="546" y1="129.4453" y2="421.6406"/><text fill="#000000" font-family="sans-serif" font-size="21" lengthAdjust="spacingAndGlyphs" textLength="84" x="12" y="124.4927">ユーザー</text><ellipse cx="58.5" cy="19.5" fill="#FEFECE" filter="url(#f4328rk1twnn)" rx="12" ry="12" style="stroke: #A80036; stroke-width: 3.0;"/><path d="M58.5,31.5 L58.5,72 M39,43.5 L78,43.5 M58.5,72 L39,94.5 M58.5,72 L78,94.5 " fill="none" filter="url(#f4328rk1twnn)" style="stroke: #A80036; stroke-width: 3.0;"/><text fill="#000000" font-family="sans-serif" font-size="21" lengthAdjust="spacingAndGlyphs" textLength="126" x="120" y="124.4927">システム画面</text><path d="M156.75,63 L156.75,99 M156.75,81 L182.25,81 " fill="none" filter="url(#f4328rk1twnn)" style="stroke: #A80036; stroke-width: 3.0;"/><ellipse cx="200.25" cy="81" fill="#FEFECE" filter="url(#f4328rk1twnn)" rx="18" ry="18" style="stroke: #A80036; stroke-width: 3.0;"/><rect fill="#FEFECE" filter="url(#f4328rk1twnn)" height="69.8906" style="stroke: #A80036; stroke-width: 2.25;" width="168" x="270" y="52.0547"/><text fill="#000000" font-family="sans-serif" font-size="21" lengthAdjust="spacingAndGlyphs" textLength="84" x="312" y="82.0474">ストアド</text><text fill="#000000" font-family="sans-serif" font-size="21" lengthAdjust="spacingAndGlyphs" textLength="147" x="280.5" y="106.4927">プロシージャー</text><rect fill="#FEFECE" filter="url(#f4328rk1twnn)" height="69.8906" style="stroke: #A80036; stroke-width: 2.25;" width="168" x="459" y="52.0547"/><text fill="#000000" font-family="sans-serif" font-size="21" lengthAdjust="spacingAndGlyphs" textLength="84" x="501" y="82.0474">ストアド</text><text fill="#000000" font-family="sans-serif" font-size="21" lengthAdjust="spacingAndGlyphs" textLength="147" x="469.5" y="106.4927">ファンクション</text><rect fill="#FFFFFF" filter="url(#f4328rk1twnn)" height="218.4961" style="stroke: #A80036; stroke-width: 1.5;" width="15" x="180" y="176.1445"/><rect fill="#FFFFFF" filter="url(#f4328rk1twnn)" height="131.0977" style="stroke: #A80036; stroke-width: 1.5;" width="15" x="349.5" y="219.8438"/><rect fill="#FFFFFF" filter="url(#f4328rk1twnn)" height="43.6992" style="stroke: #A80036; stroke-width: 1.5;" width="15" x="538.5" y="263.543"/><polygon fill="#A80036" points="162,170.1445,177,176.1445,162,182.1445,168,176.1445" style="stroke: #A80036; stroke-width: 1.5;"/><line style="stroke: #A80036; stroke-width: 1.5;" x1="58.5" x2="171" y1="176.1445" y2="176.1445"/><text fill="#000000" font-family="sans-serif" font-size="19.5" lengthAdjust="spacingAndGlyphs" textLength="39" x="69" y="168.5457">操作</text><polygon fill="#A80036" points="331.5,213.8438,346.5,219.8438,331.5,225.8438,337.5,219.8438" style="stroke: #A80036; stroke-width: 1.5;"/><line style="stroke: #A80036; stroke-width: 1.5;" x1="195" x2="340.5" y1="219.8438" y2="219.8438"/><text fill="#000000" font-family="sans-serif" font-size="19.5" lengthAdjust="spacingAndGlyphs" textLength="39" x="205.5" y="212.2449">呼出</text><polygon fill="#A80036" points="520.5,257.543,535.5,263.543,520.5,269.543,526.5,263.543" style="stroke: #A80036; stroke-width: 1.5;"/><line style="stroke: #A80036; stroke-width: 1.5;" x1="364.5" x2="529.5" y1="263.543" y2="263.543"/><text fill="#000000" font-family="sans-serif" font-size="19.5" lengthAdjust="spacingAndGlyphs" textLength="39" x="375" y="255.9441">呼出</text><polygon fill="#A80036" points="381,301.2422,366,307.2422,381,313.2422,375,307.2422" style="stroke: #A80036; stroke-width: 1.5;"/><line style="stroke: #A80036; stroke-width: 1.5;" x1="372" x2="544.5" y1="307.2422" y2="307.2422"/><text fill="#000000" font-family="sans-serif" font-size="19.5" lengthAdjust="spacingAndGlyphs" textLength="39" x="390" y="299.6433">結果</text><polygon fill="#A80036" points="211.5,344.9414,196.5,350.9414,211.5,356.9414,205.5,350.9414" style="stroke: #A80036; stroke-width: 1.5;"/><line style="stroke: #A80036; stroke-width: 1.5;" x1="202.5" x2="355.5" y1="350.9414" y2="350.9414"/><text fill="#000000" font-family="sans-serif" font-size="19.5" lengthAdjust="spacingAndGlyphs" textLength="39" x="220.5" y="343.3425">結果</text><polygon fill="#A80036" points="75,388.6406,60,394.6406,75,400.6406,69,394.6406" style="stroke: #A80036; stroke-width: 1.5;"/><line style="stroke: #A80036; stroke-width: 1.5;" x1="66" x2="186" y1="394.6406" y2="394.6406"/><text fill="#000000" font-family="sans-serif" font-size="19.5" lengthAdjust="spacingAndGlyphs" textLength="39" x="84" y="387.0417">表示</text><!--MD5=[fc65798d69ab0fc1b129faa565fec6ae]
@startuml
scale 1.5
hide footbox
actor ユーザー as user
boundary システム画面 as disp
participant "ストアド\nプロシージャー" as proc
participant "ストアド\nファンクション" as  func
user -> disp : 操作
activate disp
disp -> proc : 呼出
activate proc
proc -> func : 呼出
activate func
func -> proc : 結果
deactivate func
proc -> disp : 結果
deactivate proc
disp -> user : 表示
deactivate disp
@enduml

PlantUML version 1.2019.13(Tue Dec 10 17:18:29 UTC 2019)
(GPL source distribution)
Java Runtime: Java(TM) SE Runtime Environment
JVM: Java HotSpot(TM) 64-Bit Server VM
Java Version: 1.7.0_25-b15
Operating System: Linux
Default Encoding: UTF-8
Language: en
Country: US
--></g></svg>